<?xml version="1.0" standalone="no"?>
<svg
  width="600"
  height="600"
  viewBox="0 0 600 600"
  xmlns="http://www.w3.org/2000/svg"
>
  <g transform="translate(300,300)">
    <path d="M102,-139.1C137.1,-115,173.6,-91.6,200.5,-54.4C227.3,-17.2,244.4,33.9,238.7,85.6C232.9,137.3,204.3,189.6,160.8,215.8C117.2,241.9,58.6,242,7.4,231.7C-43.7,221.5,-87.4,200.9,-125.7,173.1C-164.1,145.2,-197.1,110,-221.1,65C-245.1,20.1,-260,-34.6,-250.1,-86.3C-240.3,-138,-205.6,-186.7,-159.8,-207.3C-114,-227.9,-57,-220.5,-11.8,-204.3C33.5,-188.1,67,-163.2,102,-139.1Z" fill="#429862" />
  </g>
</svg>
